<mxfile host="app.diagrams.net" modified="2023-10-20T11:54:12.923Z" agent="Mozilla/5.0 (Windows NT 10.0; Win64; x64) AppleWebKit/537.36 (KHTML, like Gecko) Chrome/118.0.0.0 Safari/537.36 Edg/118.0.2088.57" etag="Of4QeXnxmCoUO1IENZjp" version="22.0.5" type="device">
  <diagram name="PÃ¡gina-1" id="zDOu_LdESnlyyzTTBfOw">
    <mxGraphModel dx="876" dy="498" grid="1" gridSize="10" guides="1" tooltips="1" connect="1" arrows="1" fold="1" page="1" pageScale="1" pageWidth="827" pageHeight="1169" math="0" shadow="0">
      <root>
        <mxCell id="0" />
        <mxCell id="1" parent="0" />
        <mxCell id="VhYncSAJFnxTfQ9Wdf8w-2" value="Business Microservice" style="swimlane;whiteSpace=wrap;html=1;startSize=23;" parent="1" vertex="1">
          <mxGeometry x="180" y="40" width="230" height="410" as="geometry" />
        </mxCell>
        <mxCell id="VhYncSAJFnxTfQ9Wdf8w-16" value="Ms Negocio&lt;br style=&quot;border-color: var(--border-color);&quot;&gt;Send-Transaction" style="shape=parallelogram;perimeter=parallelogramPerimeter;whiteSpace=wrap;html=1;fixedSize=1;shadow=1;fillColor=#dae8fc;strokeColor=#6c8ebf;" parent="VhYncSAJFnxTfQ9Wdf8w-2" vertex="1">
          <mxGeometry x="47.5" y="175" width="135" height="60" as="geometry" />
        </mxCell>
        <mxCell id="VhYncSAJFnxTfQ9Wdf8w-34" value="Save transaccion" style="text;html=1;strokeColor=none;fillColor=none;align=center;verticalAlign=middle;whiteSpace=wrap;rounded=0;rotation=-90;" parent="VhYncSAJFnxTfQ9Wdf8w-2" vertex="1">
          <mxGeometry x="30" y="290" width="60" height="30" as="geometry" />
        </mxCell>
        <mxCell id="VhYncSAJFnxTfQ9Wdf8w-36" value="Node Js" style="text;html=1;strokeColor=none;fillColor=none;align=center;verticalAlign=middle;whiteSpace=wrap;rounded=0;" parent="VhYncSAJFnxTfQ9Wdf8w-2" vertex="1">
          <mxGeometry y="20" width="60" height="30" as="geometry" />
        </mxCell>
        <mxCell id="VhYncSAJFnxTfQ9Wdf8w-37" value="Update Transaction event" style="text;html=1;strokeColor=none;fillColor=none;align=center;verticalAlign=middle;whiteSpace=wrap;rounded=0;rotation=-90;" parent="VhYncSAJFnxTfQ9Wdf8w-2" vertex="1">
          <mxGeometry x="80" y="290" width="97.5" height="30" as="geometry" />
        </mxCell>
        <mxCell id="VhYncSAJFnxTfQ9Wdf8w-39" value="Send transaccion created event" style="text;strokeColor=none;fillColor=none;align=left;verticalAlign=middle;spacingLeft=4;spacingRight=4;overflow=hidden;points=[[0,0.5],[1,0.5]];portConstraint=eastwest;rotatable=0;whiteSpace=wrap;html=1;" parent="VhYncSAJFnxTfQ9Wdf8w-2" vertex="1">
          <mxGeometry x="120" y="60" width="110" height="30" as="geometry" />
        </mxCell>
        <mxCell id="VhYncSAJFnxTfQ9Wdf8w-3" value="Kafka Cluster" style="swimlane;whiteSpace=wrap;html=1;" parent="1" vertex="1">
          <mxGeometry x="450" y="40" width="230" height="250" as="geometry" />
        </mxCell>
        <mxCell id="VhYncSAJFnxTfQ9Wdf8w-13" style="edgeStyle=orthogonalEdgeStyle;rounded=0;orthogonalLoop=1;jettySize=auto;html=1;entryX=0.5;entryY=0;entryDx=0;entryDy=0;fillColor=#008a00;strokeColor=#005700;" parent="VhYncSAJFnxTfQ9Wdf8w-3" source="VhYncSAJFnxTfQ9Wdf8w-5" target="VhYncSAJFnxTfQ9Wdf8w-10" edge="1">
          <mxGeometry relative="1" as="geometry" />
        </mxCell>
        <mxCell id="VhYncSAJFnxTfQ9Wdf8w-5" value="Topic&lt;br style=&quot;border-color: var(--border-color);&quot;&gt;Valid Transaction" style="ellipse;whiteSpace=wrap;html=1;fillColor=#d5e8d4;strokeColor=#82b366;" parent="VhYncSAJFnxTfQ9Wdf8w-3" vertex="1">
          <mxGeometry x="52.5" y="100" width="125" height="60" as="geometry" />
        </mxCell>
        <mxCell id="VhYncSAJFnxTfQ9Wdf8w-10" value="Subscribe Message&lt;br&gt;Transaction" style="rounded=0;whiteSpace=wrap;html=1;fillColor=#d5e8d4;strokeColor=#82b366;" parent="VhYncSAJFnxTfQ9Wdf8w-3" vertex="1">
          <mxGeometry x="57.5" y="185" width="115" height="40" as="geometry" />
        </mxCell>
        <mxCell id="VhYncSAJFnxTfQ9Wdf8w-12" style="edgeStyle=orthogonalEdgeStyle;rounded=0;orthogonalLoop=1;jettySize=auto;html=1;entryX=0.5;entryY=0;entryDx=0;entryDy=0;fillColor=#008a00;strokeColor=#005700;" parent="VhYncSAJFnxTfQ9Wdf8w-3" source="VhYncSAJFnxTfQ9Wdf8w-6" target="VhYncSAJFnxTfQ9Wdf8w-5" edge="1">
          <mxGeometry relative="1" as="geometry" />
        </mxCell>
        <mxCell id="VhYncSAJFnxTfQ9Wdf8w-6" value="Publish Message&lt;br&gt;Transaction" style="rounded=0;whiteSpace=wrap;html=1;fillColor=#d5e8d4;strokeColor=#82b366;" parent="VhYncSAJFnxTfQ9Wdf8w-3" vertex="1">
          <mxGeometry x="57.5" y="40" width="115" height="40" as="geometry" />
        </mxCell>
        <mxCell id="VhYncSAJFnxTfQ9Wdf8w-23" style="edgeStyle=orthogonalEdgeStyle;rounded=0;orthogonalLoop=1;jettySize=auto;html=1;entryX=0;entryY=0.5;entryDx=0;entryDy=0;fillColor=#1ba1e2;strokeColor=#006EAF;" parent="1" source="VhYncSAJFnxTfQ9Wdf8w-22" target="VhYncSAJFnxTfQ9Wdf8w-16" edge="1">
          <mxGeometry relative="1" as="geometry" />
        </mxCell>
        <mxCell id="VhYncSAJFnxTfQ9Wdf8w-22" value="Postman" style="shape=umlActor;verticalLabelPosition=bottom;verticalAlign=top;html=1;outlineConnect=0;" parent="1" vertex="1">
          <mxGeometry x="30" y="215" width="30" height="60" as="geometry" />
        </mxCell>
        <mxCell id="VhYncSAJFnxTfQ9Wdf8w-26" style="edgeStyle=orthogonalEdgeStyle;rounded=1;orthogonalLoop=1;jettySize=auto;html=1;exitX=0.5;exitY=0;exitDx=0;exitDy=0;entryX=0;entryY=0.5;entryDx=0;entryDy=0;fillColor=#008a00;strokeColor=#005700;dashed=1;" parent="1" source="VhYncSAJFnxTfQ9Wdf8w-16" target="VhYncSAJFnxTfQ9Wdf8w-6" edge="1">
          <mxGeometry relative="1" as="geometry" />
        </mxCell>
        <mxCell id="VhYncSAJFnxTfQ9Wdf8w-28" value="Db Sql" style="swimlane;whiteSpace=wrap;html=1;" parent="1" vertex="1">
          <mxGeometry x="450" y="310" width="230" height="140" as="geometry" />
        </mxCell>
        <mxCell id="VhYncSAJFnxTfQ9Wdf8w-31" value="PosgreSql" style="shape=cylinder3;whiteSpace=wrap;html=1;boundedLbl=1;backgroundOutline=1;size=15;fillColor=#f8cecc;strokeColor=#b85450;" parent="VhYncSAJFnxTfQ9Wdf8w-28" vertex="1">
          <mxGeometry x="70" y="50" width="90" height="70" as="geometry" />
        </mxCell>
        <mxCell id="VhYncSAJFnxTfQ9Wdf8w-33" value="Send transaccion" style="text;strokeColor=none;fillColor=none;align=left;verticalAlign=middle;spacingLeft=4;spacingRight=4;overflow=hidden;points=[[0,0.5],[1,0.5]];portConstraint=eastwest;rotatable=0;whiteSpace=wrap;html=1;" parent="1" vertex="1">
          <mxGeometry x="70" y="215" width="110" height="30" as="geometry" />
        </mxCell>
        <mxCell id="VhYncSAJFnxTfQ9Wdf8w-38" style="edgeStyle=orthogonalEdgeStyle;rounded=1;orthogonalLoop=1;jettySize=auto;html=1;entryX=1;entryY=0.5;entryDx=0;entryDy=0;fillColor=#647687;strokeColor=#314354;" parent="1" source="VhYncSAJFnxTfQ9Wdf8w-10" target="VhYncSAJFnxTfQ9Wdf8w-16" edge="1">
          <mxGeometry relative="1" as="geometry" />
        </mxCell>
        <mxCell id="VhYncSAJFnxTfQ9Wdf8w-41" style="edgeStyle=orthogonalEdgeStyle;rounded=1;orthogonalLoop=1;jettySize=auto;html=1;exitX=0.25;exitY=1;exitDx=0;exitDy=0;entryX=0;entryY=0;entryDx=0;entryDy=45;entryPerimeter=0;fillColor=#1ba1e2;strokeColor=#006EAF;" parent="1" source="VhYncSAJFnxTfQ9Wdf8w-16" target="VhYncSAJFnxTfQ9Wdf8w-31" edge="1">
          <mxGeometry relative="1" as="geometry" />
        </mxCell>
        <mxCell id="VhYncSAJFnxTfQ9Wdf8w-42" style="edgeStyle=orthogonalEdgeStyle;rounded=1;orthogonalLoop=1;jettySize=auto;html=1;exitX=0.75;exitY=1;exitDx=0;exitDy=0;entryX=0;entryY=0.5;entryDx=0;entryDy=0;entryPerimeter=0;fillColor=#647687;strokeColor=#314354;" parent="1" source="VhYncSAJFnxTfQ9Wdf8w-16" target="VhYncSAJFnxTfQ9Wdf8w-31" edge="1">
          <mxGeometry relative="1" as="geometry" />
        </mxCell>
        <mxCell id="VhYncSAJFnxTfQ9Wdf8w-43" value="Event Microservice" style="swimlane;whiteSpace=wrap;html=1;startSize=23;" parent="1" vertex="1">
          <mxGeometry x="720" y="40" width="230" height="410" as="geometry" />
        </mxCell>
        <mxCell id="VhYncSAJFnxTfQ9Wdf8w-44" value="Ms Event&lt;br style=&quot;border-color: var(--border-color);&quot;&gt;Anti-Fraude" style="shape=parallelogram;perimeter=parallelogramPerimeter;whiteSpace=wrap;html=1;fixedSize=1;shadow=1;fillColor=#f5f5f5;strokeColor=#666666;fontColor=#333333;" parent="VhYncSAJFnxTfQ9Wdf8w-43" vertex="1">
          <mxGeometry x="47.5" y="175" width="135" height="60" as="geometry" />
        </mxCell>
        <mxCell id="VhYncSAJFnxTfQ9Wdf8w-40" value="Update transaccion event" style="text;strokeColor=none;fillColor=none;align=left;verticalAlign=middle;spacingLeft=4;spacingRight=4;overflow=hidden;points=[[0,0.5],[1,0.5]];portConstraint=eastwest;rotatable=0;whiteSpace=wrap;html=1;" parent="VhYncSAJFnxTfQ9Wdf8w-43" vertex="1">
          <mxGeometry y="60" width="110" height="30" as="geometry" />
        </mxCell>
        <mxCell id="VhYncSAJFnxTfQ9Wdf8w-51" style="edgeStyle=orthogonalEdgeStyle;rounded=1;orthogonalLoop=1;jettySize=auto;html=1;exitX=0.5;exitY=0;exitDx=0;exitDy=0;entryX=1;entryY=0.5;entryDx=0;entryDy=0;fillColor=#647687;strokeColor=#314354;" parent="1" source="VhYncSAJFnxTfQ9Wdf8w-44" target="VhYncSAJFnxTfQ9Wdf8w-6" edge="1">
          <mxGeometry relative="1" as="geometry" />
        </mxCell>
        <mxCell id="VhYncSAJFnxTfQ9Wdf8w-54" style="edgeStyle=orthogonalEdgeStyle;rounded=0;orthogonalLoop=1;jettySize=auto;html=1;exitX=1;exitY=0.5;exitDx=0;exitDy=0;entryX=0;entryY=0.5;entryDx=0;entryDy=0;dashed=1;fillColor=#008a00;strokeColor=#005700;" parent="1" source="VhYncSAJFnxTfQ9Wdf8w-10" target="VhYncSAJFnxTfQ9Wdf8w-44" edge="1">
          <mxGeometry relative="1" as="geometry" />
        </mxCell>
      </root>
    </mxGraphModel>
  </diagram>
</mxfile>
